<?xml version="1.0" encoding="UTF-8"?>
<svg version="1.1" viewBox="0 0 2048 2048" width="26" height="32" xmlns="http://www.w3.org/2000/svg">
<path transform="translate(981)" d="m0 0h91v1l44 8 30 8 21 7 22 9 24 11 25 14 22 14 17 13 14 11 10 9 8 7 24 24 9 11 11 13 11 15 12 18 9 15 12 22 9 19 10 25 9 28 7 28 5 30 2 18 1 15 1 40h223l16 4 11 6 13 10 9 11 7 12 4 14 3 28 27 335 21 259 19 236 26 321 13 159 1 14v30l-3 22-6 23-8 20-11 21-12 17-9 11-15 15-17 13-18 11-21 10-21 7-25 6h-1289l-15-4-25-7-18-8-17-9-14-10-11-9-12-11-10-11-11-15-8-13-8-16-7-17-6-23-3-19-1-17 2-37 7-83 7-87 9-111 6-76 6-73 6-76 9-109 9-111 7-87 12-148 7-88 6-73 7-87 8-99 3-26 5-14 7-12 9-10 8-7 15-8 9-3 5-1h225v-23l1-25 4-35 7-34 8-28 7-20 10-24 8-17 7-12 6-11 13-21 14-19 10-13 9-10 7-8 7-7 7-8 13-12 15-13 17-13 20-14 25-15 23-12 23-10 24-9 27-8 32-7zm31 143-23 2-19 3-24 6-23 8-24 11-19 11-19 13-11 9-10 9-8 7-4 4v2l-3 1-7 8-13 16-14 21-9 16-10 21-7 19-6 21-4 18-3 24-1 25v15l90 1h347l108-1v-35l-3-27-6-28-8-24-9-21-11-21-14-21-13-17-14-15-12-12-14-11-12-9-15-10-22-12-21-9-24-8-26-6-22-3-15-1zm-550 433-1 1-3 32-7 86-10 124-9 110-7 88-9 109-7 88-9 109-7 89-10 123-10 124-15 185v22l3 10 6 10 5 6 10 7 14 5 9 1h1211l36-1 14-5 9-7 9-10 5-12 1-5v-18l-14-172-19-236-25-308-19-236-17-209-9-110h-146l-1 19v229l-1 116-4 16-6 12-7 9-5 6-13 9-14 6-14 3h-16l-14-3-16-8-8-6-10-10-8-13-5-13-2-16-1-356h-544l-1 5-1 360-4 15-8 15-8 10-2 1v2l-4 2-13 8-14 5-10 2h-16l-14-3-11-5-11-7-12-12-8-13-5-14-2-17-1-354z"/>
<path transform="translate(374,2047)" d="m0 0 3 1z"/>
</svg>
