<?xml version="1.0" standalone="no"?>
<!DOCTYPE svg PUBLIC "-//W3C//DTD SVG 20010904//EN"
 "http://www.w3.org/TR/2001/REC-SVG-20010904/DTD/svg10.dtd">
<svg version="1.0" xmlns="http://www.w3.org/2000/svg"
 width="35" height="32" viewBox="0 0 256.000000 256.000000"
 preserveAspectRatio="xMidYMid meet">

<g transform="translate(0.000000,256.000000) scale(0.100000,-0.100000)"
fill="#000000" stroke="none">
<path d="M1186 2223 c-48 -147 -115 -353 -150 -458 l-63 -190 -184 0 -184 0
-54 168 c-30 92 -57 167 -61 167 -3 0 -30 -75 -61 -167 l-55 -168 -185 -5
-184 -5 142 -103 c79 -57 145 -107 147 -111 3 -4 -19 -84 -49 -176 -30 -93
-53 -170 -51 -172 1 -1 68 45 149 103 l147 106 32 -23 c133 -93 258 -191 258
-202 0 -7 -66 -215 -146 -461 -80 -246 -143 -450 -141 -452 2 -3 178 122 391
277 213 154 393 279 400 276 7 -3 181 -128 386 -277 206 -150 380 -274 387
-277 9 -4 8 9 -6 49 -55 161 -283 870 -280 872 2 2 49 36 103 77 l99 74 -266
5 -267 5 46 38 47 37 274 0 c302 0 286 -3 382 69 l55 41 -225 0 c-123 0 -248
3 -277 6 l-52 7 37 33 38 33 294 1 294 0 101 73 101 72 -487 3 -487 2 -126
388 c-69 213 -135 416 -147 452 -11 36 -24 69 -28 73 -4 5 -47 -112 -94 -260z
m-307 -943 c-46 -143 -86 -260 -89 -260 -10 0 -111 320 -105 330 10 17 268
201 273 195 3 -3 -32 -122 -79 -265z"/>
</g>
</svg>
