<?xml version="1.0" standalone="no"?>
<!DOCTYPE svg PUBLIC "-//W3C//DTD SVG 20010904//EN"
 "http://www.w3.org/TR/2001/REC-SVG-20010904/DTD/svg10.dtd">
<svg version="1.0" xmlns="http://www.w3.org/2000/svg"
 width="40" height="50" viewBox="0 0 250.000000 313.000000"
 preserveAspectRatio="xMidYMid meet">

<g transform="translate(0.000000,313.000000) scale(0.100000,-0.100000)"
fill="#000000" stroke="none">
<path d="M1895 3085 c-206 -61 -483 -189 -651 -300 -115 -77 -315 -271 -415
-405 -80 -105 -166 -259 -200 -354 -12 -37 -24 -54 -43 -60 -14 -6 -29 -7 -32
-3 -12 11 26 199 61 304 58 172 112 270 267 480 37 51 68 95 68 98 0 8 -128
-63 -205 -114 -175 -115 -400 -387 -500 -604 -63 -138 -113 -340 -130 -532 -4
-38 -20 -104 -35 -145 -102 -269 -83 -595 50 -865 l49 -100 -7 70 c-11 112 -7
216 11 278 10 31 21 57 25 56 4 0 21 -31 39 -68 148 -310 597 -637 1025 -746
108 -27 294 -55 366 -55 47 0 255 40 302 58 22 8 19 10 -30 16 -222 29 -444
92 -601 171 -135 69 -408 275 -455 345 l-24 35 70 11 c87 15 146 43 209 100
104 94 153 202 153 339 0 213 -113 345 -295 345 -81 0 -128 -26 -186 -103 -13
-16 -11 -16 23 -2 73 31 142 -8 166 -93 18 -65 6 -126 -33 -169 -53 -59 -191
-69 -285 -21 -128 65 -184 294 -107 436 58 108 147 163 271 170 146 8 270 -43
386 -159 89 -87 129 -160 154 -280 27 -124 1 -314 -60 -441 -14 -29 -23 -54
-21 -56 7 -8 63 38 108 87 43 48 107 166 122 226 4 17 11 73 14 125 l6 95 49
23 c78 38 178 55 285 49 106 -6 105 -1 -11 53 -87 40 -168 61 -269 67 l-85 6
-17 46 -16 46 29 45 c35 55 136 157 202 203 72 51 161 87 257 104 165 30 347
-18 510 -134 l24 -18 -24 43 c-84 149 -210 245 -399 304 -65 20 -94 23 -220
22 -127 -1 -156 -4 -233 -28 -132 -40 -238 -97 -348 -187 l-46 -38 -37 25
c-21 14 -58 35 -82 45 -51 23 -51 14 2 176 103 316 317 570 758 902 112 84
134 101 126 100 -3 0 -41 -11 -85 -24z"/>
</g>
</svg>
