<?xml version="1.0" standalone="no"?>
<!DOCTYPE svg PUBLIC "-//W3C//DTD SVG 20010904//EN"
 "http://www.w3.org/TR/2001/REC-SVG-20010904/DTD/svg10.dtd">
<svg version="1.0" xmlns="http://www.w3.org/2000/svg"
 width="32pt" height="32pt" viewBox="0 0 900.000000 900.000000"
 preserveAspectRatio="xMidYMid meet">

<g transform="translate(0.000000,900.000000) scale(0.100000,-0.100000)"
fill="#000000" stroke="none">
<path d="M4450 6984 c-30 -8 -95 -35 -145 -59 -220 -109 -396 -287 -585 -589
-46 -75 -88 -136 -92 -136 -4 0 -87 31 -185 69 -221 85 -282 103 -356 105 -52
1 -61 -2 -82 -26 -42 -48 -45 -228 -9 -492 8 -60 12 -112 7 -116 -13 -12 -369
-135 -487 -169 -165 -47 -222 -54 -390 -48 -173 6 -270 27 -548 122 -89 30
-173 55 -185 55 -30 0 -30 -12 7 -190 73 -353 182 -574 379 -770 168 -166 378
-297 582 -364 156 -51 234 -60 487 -59 122 1 222 -1 222 -5 0 -17 -39 -141
-53 -168 -47 -92 -419 -576 -517 -674 -36 -36 -93 -87 -127 -113 -85 -65 -292
-196 -420 -265 -103 -55 -105 -57 -99 -86 12 -59 89 -170 180 -262 143 -142
302 -229 521 -284 159 -41 259 -53 435 -53 240 0 402 36 615 137 210 100 332
185 526 370 70 65 133 116 164 130 154 73 394 74 549 3 35 -16 93 -62 171
-137 229 -217 448 -353 705 -440 143 -47 253 -63 445 -62 356 1 654 92 870
266 128 102 262 286 253 348 -2 18 -26 35 -108 79 -229 121 -437 266 -551 385
-100 104 -426 531 -492 644 -14 25 -35 78 -46 119 l-21 74 163 -7 c294 -12
490 21 685 114 392 187 639 455 761 825 35 108 81 308 88 388 6 55 5 57 -18
57 -13 0 -89 -23 -169 -51 -80 -28 -206 -66 -280 -86 -119 -32 -153 -36 -290
-41 -187 -5 -248 5 -490 84 -148 48 -379 130 -386 137 -2 2 3 41 12 87 20 122
30 436 15 483 -17 51 -57 71 -126 62 -54 -6 -214 -59 -408 -134 -59 -23 -111
-39 -116 -37 -5 3 -42 59 -82 123 -196 314 -383 500 -610 607 -137 65 -253 81
-369 50z m-850 -2084 c97 -77 246 -247 415 -474 l89 -118 1 -142 c2 -150 18
-243 55 -316 45 -89 96 -65 124 58 9 39 16 82 16 96 0 15 2 26 5 26 3 0 26
-15 53 -34 26 -19 74 -44 106 -56 109 -41 245 -13 339 70 21 18 40 31 42 28 3
-2 11 -41 19 -85 19 -110 41 -155 74 -151 34 4 60 42 85 124 16 55 21 101 23
231 l2 162 88 118 c208 276 392 473 464 494 48 14 105 -8 122 -48 8 -18 12
-84 12 -178 0 -291 -59 -495 -225 -770 -26 -45 -56 -88 -66 -96 -21 -18 -195
-72 -303 -95 -93 -20 -174 -14 -333 24 -108 26 -119 30 -137 59 -24 40 -48 53
-101 53 -37 0 -48 -6 -83 -43 -38 -40 -49 -44 -161 -72 -174 -43 -280 -41
-430 8 -60 20 -128 40 -150 45 -34 7 -45 17 -83 72 -62 93 -157 284 -187 376
-40 121 -65 291 -66 434 0 69 3 139 7 155 20 86 106 107 184 45z"/>
</g>
</svg>
